{"title":"War - Live Disc 1 FLAC","uid":4833166,"size":268142745,"categoryP":"audio","categoryS":"flac","magnet":"?xt=urn:btih:04e2d3091e038923be051ba939826e8c37240f2c&amp;dn=War+-+Live+Disc+1+FLAC&amp;tr=udp%3A%2F%2Ftracker.openbittorrent.com%3A80&amp;tr=udp%3A%2F%2Fopen.demonii.com%3A1337&amp;tr=udp%3A%2F%2Ftracker.coppersurfer.tk%3A6969&amp;tr=udp%3A%2F%2Fexodus.desync.com%3A6969","seeders":1,"leechers":0,"uploader":null,"files":7,"time":1239211757,"description":"Exact Audio Copy V0.99 prebeta 3 from 28. July 2007\n\nEAC extraction logfile from 8. April 2009, 8:20\n\nWar / War Live - Disc 1\n\nUsed drive  : ATAPI   DVD D  DH16D3P   Adapter: 0  ID: 1\n\nRead mode               : Secure\nUtilize accurate stream : Yes\nDefeat audio cache      : No\nMake use of C2 pointers : No\n\nRead offset correction                      : 6\nOverread into Lead-In and Lead-Out          : No\nFill up missing offset samples with silence : Yes\nDelete leading and trailing silent blocks   : No\nNull samples used in CRC calculations       : No\nUsed interface                              : Installed external ASPI interface\nGap handling                                : Not detected, thus appended to previous track\n\nUsed output format : Internal WAV Routines\nSample format      : 44.100 Hz; 16 Bit; Stereo\n\n\nTOC of the extracted CD\n\n     Track |   Start  |  Length  | Start sector | End sector \n    ---------------------------------------------------------\n        1  |  0:00.32 |  0:31.13 |        32    |     2369   \n        2  |  0:31.45 | 10:41.30 |      2370    |    50474   \n        3  | 11:13.00 |  6:06.65 |     50475    |    77989   \n        4  | 17:19.65 |  9:40.47 |     77990    |   121536   \n        5  | 27:00.37 |  8:55.48 |    121537    |   161709   \n\n\nTrack  1\n\n     Filename E:MusicWarWar Live - Disc 1War - War Live - Disc 1 - 01. Introduction By E. Rodney Jones of Radio Station WVON, Chicago, IL.wav\n\n     Peak level 84.2 %\n     Track quality 100.0 %\n     Copy CRC 0EE4DD8E\n     Accurately ripped (confidence 2)  [A4168742]\n     Copy OK\n\nTrack  2\n\n     Filename E:MusicWarWar Live - Disc 1War - War Live - Disc 1 - 02. Sun Oh Son.wav\n\n     Peak level 100.0 %\n     Track quality 100.0 %\n     Copy CRC D0F97FC0\n     Accurately ripped (confidence 2)  [34ABD01E]\n     Copy OK\n\nTrack  3\n\n     Filename E:MusicWarWar Live - Disc 1War - War Live - Disc 1 - 03. The Cisco Kid.wav\n\n     Peak level 100.0 %\n     Track quality 100.0 %\n     Copy CRC 82A4E892\n     Accurately ripped (confidence 2)  [E92ECFAD]\n     Copy OK\n\nTrack  4\n\n     Filename E:MusicWarWar Live - Disc 1War - War Live - Disc 1 - 04. Slippin' Into Darkness.wav\n\n     Peak level 100.0 %\n     Track quality 100.0 %\n     Copy CRC 2FAB7341\n     Accurately ripped (confidence 2)  [7D5457AD]\n     Copy OK\n\nTrack  5\n\n     Filename E:MusicWarWar Live - Disc 1War - War Live - Disc 1 - 05. Slippin' Part 2.wav\n\n     Peak level 100.0 %\n     Track quality 99.9 %\n     Copy CRC F2682743\n     Accurately ripped (confidence 2)  [DFB85FED]\n     Copy OK\n\n\nAll tracks accurately ripped\n\nNo errors occurred\n\nEnd of status report\n","torrent":{"xt":"urn:btih:04e2d3091e038923be051ba939826e8c37240f2c","amp;dn":"War+-+Live+Disc+1+FLAC","amp;tr":["udp%3A%2F%2Ftracker.openbittorrent.com%3A80","udp%3A%2F%2Fopen.demonii.com%3A1337","udp%3A%2F%2Ftracker.coppersurfer.tk%3A6969","udp%3A%2F%2Fexodus.desync.com%3A6969"],"infoHash":"04e2d3091e038923be051ba939826e8c37240f2c","infoHashBuffer":{"type":"Buffer","data":[4,226,211,9,30,3,137,35,190,5,27,169,57,130,110,140,55,36,15,44]},"announce":[],"urlList":[]}}